<svg width="30" height="30" viewBox="0 0 30 30" fill="none" xmlns="http://www.w3.org/2000/svg">
<path fill-rule="evenodd" clip-rule="evenodd" d="M15 0C6.7125 0 0 6.72098 0 15.019C0 21.6648 4.29375 27.2782 10.2562 29.2682C11.0062 29.3996 11.2875 28.949 11.2875 28.5548C11.2875 28.1981 11.2688 27.0153 11.2688 25.7575C7.5 26.4521 6.525 24.8376 6.225 23.9928C6.05625 23.561 5.325 22.2281 4.6875 21.8714C4.1625 21.5897 3.4125 20.8951 4.66875 20.8763C5.85 20.8576 6.69375 21.9652 6.975 22.4158C8.325 24.6874 10.4812 24.0491 11.3437 23.6549C11.475 22.6786 11.8688 22.0215 12.3 21.6461C8.9625 21.2706 5.475 19.9752 5.475 14.2305C5.475 12.5971 6.05625 11.2454 7.0125 10.1941C6.8625 9.81864 6.3375 8.2792 7.1625 6.21409C7.1625 6.21409 8.41875 5.81984 11.2875 7.75353C12.4875 7.41561 13.7625 7.24664 15.0375 7.24664C16.3125 7.24664 17.5875 7.41561 18.7875 7.75353C21.6562 5.80107 22.9125 6.21409 22.9125 6.21409C23.7375 8.2792 23.2125 9.81864 23.0625 10.1941C24.0188 11.2454 24.6 12.5784 24.6 14.2305C24.6 19.994 21.0938 21.2706 17.7562 21.6461C18.3 22.1154 18.7688 23.0165 18.7688 24.4246C18.7688 26.4334 18.75 28.0479 18.75 28.5548C18.75 28.949 19.0312 29.4184 19.7812 29.2682C22.759 28.2616 25.3465 26.3453 27.1796 23.7892C29.0127 21.2331 29.9991 18.1658 30 15.019C30 6.72098 23.2875 0 15 0Z" fill="#212B33"/>
</svg>
