<svg width="30" height="24" viewBox="0 0 30 24" fill="none" xmlns="http://www.w3.org/2000/svg">
<path d="M27 20.9028H24V7.83854L15 13.4375L6 7.83854V20.9028H3V2.98611H4.8L15 9.3316L25.2 2.98611H27M27 0H3C1.335 0 0 1.32882 0 2.98611V20.9028C0 21.6947 0.31607 22.4543 0.87868 23.0143C1.44129 23.5743 2.20435 23.8889 3 23.8889H27C27.7956 23.8889 28.5587 23.5743 29.1213 23.0143C29.6839 22.4543 30 21.6947 30 20.9028V2.98611C30 2.19415 29.6839 1.43462 29.1213 0.874612C28.5587 0.314607 27.7956 0 27 0V0Z" fill="#212B33"/>
</svg>
