<svg width="500" height="424" viewBox="0 0 500 424" fill="none" xmlns="http://www.w3.org/2000/svg">
<path d="M230.769 250V365.385C230.769 381.41 225.16 395.032 213.942 406.25C202.724 417.468 189.103 423.077 173.077 423.077H57.6923C41.6667 423.077 28.0449 417.468 16.8269 406.25C5.60897 395.032 0 381.41 0 365.385V153.846C0 133.013 4.05649 113.131 12.1695 94.2007C20.2825 75.2704 31.25 58.8942 45.0721 45.0721C58.8942 31.25 75.2704 20.2825 94.2007 12.1695C113.131 4.05649 133.013 0 153.846 0H173.077C178.285 0 182.792 1.90304 186.599 5.70913C190.405 9.51522 192.308 14.0224 192.308 19.2308V57.6923C192.308 62.9006 190.405 67.4079 186.599 71.2139C182.792 75.02 178.285 76.9231 173.077 76.9231H153.846C132.612 76.9231 114.483 84.4351 99.4591 99.4591C84.4351 114.483 76.9231 132.612 76.9231 153.846V163.462C76.9231 171.474 79.7276 178.285 85.3365 183.894C90.9455 189.503 97.7564 192.308 105.769 192.308H173.077C189.103 192.308 202.724 197.917 213.942 209.135C225.16 220.353 230.769 233.974 230.769 250ZM500 250V365.385C500 381.41 494.391 395.032 483.173 406.25C471.955 417.468 458.333 423.077 442.308 423.077H326.923C310.897 423.077 297.276 417.468 286.058 406.25C274.84 395.032 269.231 381.41 269.231 365.385V153.846C269.231 133.013 273.287 113.131 281.4 94.2007C289.513 75.2704 300.481 58.8942 314.303 45.0721C328.125 31.25 344.501 20.2825 363.432 12.1695C382.362 4.05649 402.244 0 423.077 0H442.308C447.516 0 452.023 1.90304 455.829 5.70913C459.635 9.51522 461.538 14.0224 461.538 19.2308V57.6923C461.538 62.9006 459.635 67.4079 455.829 71.2139C452.023 75.02 447.516 76.9231 442.308 76.9231H423.077C401.843 76.9231 383.714 84.4351 368.69 99.4591C353.666 114.483 346.154 132.612 346.154 153.846V163.462C346.154 171.474 348.958 178.285 354.567 183.894C360.176 189.503 366.987 192.308 375 192.308H442.308C458.333 192.308 471.955 197.917 483.173 209.135C494.391 220.353 500 233.974 500 250Z" fill="white" fill-opacity="0.92"/>
</svg>
